# Blender 3.3.0 Beta
# www.blender.org
o spacecraft
v -0.352165 -0.050053 0.722817
v -0.454671 0.062085 -0.209699
v -0.185378 0.771822 0.718784
v 0.583422 1.559838 0.166479
v -0.583422 1.559838 0.166479
v 0.185378 0.771822 0.718784
v -0.220311 4.118248 0.221289
v -0.388996 4.245951 0.035132
v 0.388996 4.245951 0.035132
v 0.220311 4.118248 0.221289
v -0.240624 4.063038 -0.110389
v 0.240624 4.063038 -0.110389
v 3.443803 0.062085 0.133624
v -3.443803 0.062085 0.133624
v 0.454671 0.062085 -0.209699
v 0.352165 -0.050053 0.722817
v -0.454671 -0.713966 -0.209699
v 3.443803 -0.713966 0.133624
v -3.443803 -0.713966 0.133624
v 0.454671 -0.713966 -0.209699
v -0.397153 -1.327500 0.249836
v -0.411840 -1.282116 -0.043492
v 0.411840 -1.282116 -0.043492
v 0.397153 -1.327500 0.249836
v -0.358872 1.325364 0.408069
v 0.358872 1.325364 0.408069
v 0.610900 0.271961 0.408069
v -0.610900 0.271961 0.408069
v -0.394563 -0.778628 0.408069
v 0.394563 -0.778628 0.408069
v 0.000000 5.155502 0.031155
vn 0.1110 0.2331 -0.9661
vn -0.0000 0.0667 0.9978
vn 0.6446 0.1542 0.7488
vn -0.8837 0.0412 -0.4663
vn -0.0000 0.0248 -0.9997
vn -0.6160 0.2667 0.7412
vn 0.7099 0.0820 0.6995
vn -0.6644 0.0540 -0.7454
vn -0.0000 0.1803 0.9836
vn -0.6873 0.0850 0.7214
vn -0.7099 0.0820 0.6995
vn 0.8837 0.0412 -0.4663
vn 0.6644 0.0540 -0.7454
vn 0.6873 0.0850 0.7214
vn -0.6446 0.1542 0.7488
vn -0.0000 0.0049 1.0000
vn 0.0964 -0.0000 0.9953
vn -0.1141 -0.0000 -0.9935
vn 0.1141 -0.0000 -0.9935
vn -0.0000 -0.0000 -1.0000
vn -0.0900 -0.0185 0.9958
vn -0.0000 -0.2770 0.9609
vn -0.0000 -0.2808 -0.9598
vn 0.0920 -0.2754 0.9569
vn -0.0920 -0.2754 0.9569
vn 0.1093 -0.2867 -0.9518
vn -0.1093 -0.2867 -0.9518
vn -0.1903 -0.9716 -0.1408
vn 0.1903 -0.9716 -0.1408
vn -0.0000 -0.9882 -0.1529
vn -0.0000 0.4895 0.8720
vn -0.0000 -0.3966 0.9180
vn -0.7024 0.1681 0.6916
vn -0.6877 0.1431 0.7117
vn 0.6877 0.1431 0.7117
vn 0.7024 0.1681 0.6916
vn 0.6160 0.2667 0.7412
vn 0.5289 0.2226 -0.8190
vn -0.0000 0.1285 -0.9917
vn -0.5289 0.2226 -0.8190
vn 0.1084 0.1855 0.9766
vn -0.1084 0.1855 0.9766
vn -0.1110 0.2331 -0.9661
vn -0.8403 -0.1730 0.5137
vn 0.8403 -0.1730 0.5137
vn 0.0900 -0.0185 0.9958
vn -0.0964 -0.0000 0.9953
vt 0.669399 0.223971
vt 0.326114 0.780854
vt 0.655378 0.290405
vt 0.443130 0.689589
vt 0.686078 0.376443
vt 0.599226 0.338840
vt 0.352858 0.661162
vt 0.682974 0.302353
vt 0.544106 0.540277
vt 0.527044 0.545248
vt 0.433242 0.458403
vt 0.584952 0.570319
vt 0.493431 0.477357
vt 0.576903 0.554476
vt 0.440178 0.476442
vt 0.477410 0.488167
vt 0.947073 0.357551
vt 0.627924 0.875176
vt 0.095068 0.707375
vt 0.434409 0.135588
vt 0.396465 0.803008
vt 0.721824 0.246669
vt 0.307213 0.840874
vt 0.972027 0.299916
vt 0.609023 0.935196
vt 0.076167 0.767395
vt 0.459363 0.077953
vt 0.377564 0.863029
vt 0.706111 0.129994
vt 0.296997 0.888849
vt 0.296789 0.885542
vt 0.360513 0.905609
vt 0.765234 0.155591
vt 0.358447 0.908201
vt 0.623998 0.327465
vt 0.677422 0.350595
vt 0.730053 0.280483
vt 0.639111 0.241109
vt 0.688995 0.170056
vt 0.747732 0.195487
vt 0.526743 0.625353
vt 0.485486 0.397542
s 0
f 15/21/1 4/4/1 13/18/1
f 26/36/2 7/9/2 25/35/2
f 26/36/3 27/37/3 4/5/3
f 5/7/4 8/11/4 2/2/4
f 11/15/5 15/21/5 2/2/5
f 8/10/6 7/9/6 31/41/6
f 10/14/7 26/36/7 9/12/7
f 2/2/8 8/11/8 11/15/8
f 31/41/9 7/9/9 10/14/9
f 8/10/10 5/6/10 25/35/10
f 8/10/11 25/35/11 7/9/11
f 4/4/12 15/21/12 9/13/12
f 12/16/13 9/13/13 15/21/13
f 9/12/14 26/36/14 4/5/14
f 25/35/15 5/6/15 28/38/15
f 3/3/16 16/22/16 6/8/16
f 27/37/17 18/24/17 13/17/17
f 2/2/18 19/26/18 14/19/18
f 13/18/19 20/28/19 15/21/19
f 15/21/20 17/23/20 2/2/20
f 28/38/21 19/27/21 29/39/21
f 29/39/22 24/33/22 30/40/22
f 17/23/23 23/32/23 22/31/23
f 30/40/24 24/33/24 18/24/24
f 29/39/25 19/27/25 21/29/25
f 18/25/26 23/32/26 20/28/26
f 17/23/27 22/31/27 19/26/27
f 21/30/28 19/26/28 22/31/28
f 24/34/29 23/32/29 18/25/29
f 23/32/30 21/30/30 22/31/30
f 6/8/31 25/35/31 3/3/31
f 16/22/32 29/39/32 30/40/32
f 25/35/33 28/38/33 3/3/33
f 1/1/34 3/3/34 28/38/34
f 16/22/35 27/37/35 6/8/35
f 26/36/36 6/8/36 27/37/36
f 10/14/37 9/12/37 31/41/37
f 12/16/38 31/42/38 9/13/38
f 11/15/39 31/42/39 12/16/39
f 31/42/40 11/15/40 8/11/40
f 13/17/41 4/5/41 27/37/41
f 28/38/42 5/6/42 14/20/42
f 2/2/43 14/19/43 5/7/43
f 29/39/44 1/1/44 28/38/44
f 27/37/45 16/22/45 30/40/45
f 26/36/2 10/14/2 7/9/2
f 11/15/5 12/16/5 15/21/5
f 3/3/16 1/1/16 16/22/16
f 27/37/46 30/40/46 18/24/46
f 2/2/18 17/23/18 19/26/18
f 13/18/19 18/25/19 20/28/19
f 15/21/20 20/28/20 17/23/20
f 28/38/47 14/20/47 19/27/47
f 29/39/22 21/29/22 24/33/22
f 17/23/23 20/28/23 23/32/23
f 23/32/30 24/34/30 21/30/30
f 6/8/31 26/36/31 25/35/31
f 16/22/32 1/1/32 29/39/32
